<svg height="85" viewBox="0 0 272 85" width="272" xmlns="http://www.w3.org/2000/svg"><path d="m250.935 74.032a2.42 2.42 0 0 1 -1.284 1.287c-.295.126-.607.19-.938.19a2.422 2.422 0 0 1 -1.706-.706 2.431 2.431 0 0 1 -.705-1.71c0-.332.063-.644.189-.94a2.415 2.415 0 0 1 4.444 0c.127.296.19.608.19.94s-.063.645-.19.94zm-.153-3.01a3.007 3.007 0 0 0 -.93-.632 2.81 2.81 0 0 0 -1.14-.233 2.81 2.81 0 0 0 -1.138.233 2.996 2.996 0 0 0 -1.56 1.563 2.823 2.823 0 0 0 -.232 1.14c0 .406.077.786.232 1.141s.365.665.63.932c.266.265.575.475.93.63s.734.234 1.139.234.784-.079 1.139-.233c.354-.156.664-.366.93-.631.265-.267.475-.577.63-.932s.232-.735.232-1.14c0-.406-.077-.786-.232-1.141a3.002 3.002 0 0 0 -.63-.932zm-1.848 1.823c-.094.007-.19.012-.284.012h-.45v-.94h.45c.094 0 .19.003.284.008a.78.78 0 0 1 .256.056.436.436 0 0 1 .185.141c.047.064.07.15.07.261a.43.43 0 0 1 -.07.26.437.437 0 0 1 -.185.143.864.864 0 0 1 -.256.059zm.9.225c.151-.147.227-.369.227-.663 0-.327-.096-.577-.288-.75-.192-.174-.49-.261-.894-.261h-1.293v3.355h.615v-1.373h.449l.835 1.373h.646l-.866-1.421a.944.944 0 0 0 .57-.26zm-10.687-2.98h-1.967v14.53h8.625v-1.847h-6.658zm-18.727 9.214 2.746-6.67h.041l2.705 6.67zm1.967-9.214-6.392 14.53h2.295l1.434-3.592h6.904l1.455 3.591h2.295l-6.208-14.53h-1.783zm-15.16 11.944h-.042l-7.99-11.944h-2.582v14.53h1.967v-11.945h.04l8.073 11.943h2.5v-14.528h-1.967v11.945zm-20.838-2.432a5.47 5.47 0 0 1 -1.106 1.837 5.341 5.341 0 0 1 -1.72 1.241c-.67.308-1.422.462-2.255.462s-1.584-.154-2.253-.462a5.337 5.337 0 0 1 -1.721-1.241 5.477 5.477 0 0 1 -1.107-1.837 6.45 6.45 0 0 1 -.389-2.248c0-.793.13-1.542.39-2.247a5.483 5.483 0 0 1 1.106-1.836 5.348 5.348 0 0 1 1.72-1.242c.67-.308 1.421-.462 2.254-.462s1.585.154 2.254.462a5.352 5.352 0 0 1 1.721 1.242c.478.52.847 1.132 1.106 1.836.26.705.39 1.454.39 2.247a6.45 6.45 0 0 1 -.39 2.248zm.359-7.686a7.11 7.11 0 0 0 -2.386-1.61c-.93-.39-1.947-.586-3.054-.586-1.106 0-2.124.195-3.052.585a7.105 7.105 0 0 0 -2.387 1.611 7.443 7.443 0 0 0 -1.557 2.422 7.98 7.98 0 0 0 -.564 3.016c0 1.081.188 2.087.564 3.017a7.44 7.44 0 0 0 1.557 2.422 7.105 7.105 0 0 0 2.387 1.61c.928.39 1.946.586 3.052.586 1.107 0 2.124-.195 3.054-.585a7.11 7.11 0 0 0 2.386-1.611 7.445 7.445 0 0 0 1.557-2.422c.376-.93.564-1.936.564-3.017a7.98 7.98 0 0 0 -.564-3.016 7.45 7.45 0 0 0 -1.557-2.422zm-22.711 12.704h1.967v-14.53h-1.967zm-18.317-12.683h4.672v12.682h1.967v-12.682h4.671v-1.847h-11.31zm-13.235 7.367 2.745-6.67h.041l2.705 6.67zm1.967-9.214-6.393 14.53h2.295l1.434-3.592h6.905l1.454 3.591h2.295l-6.208-14.53h-1.782zm-15.162 11.944h-.041l-7.99-11.944h-2.582v14.53h1.966v-11.945h.041l8.073 11.943h2.5v-14.528h-1.967v11.945zm-23.5-5.541h-2.582v-4.68h2.581c.383 0 .762.031 1.138.093.375.062.71.174 1.003.339.294.164.53.4.707.708.178.307.267.707.267 1.2s-.09.893-.267 1.2a1.853 1.853 0 0 1 -.707.709 3.05 3.05 0 0 1 -1.003.338 7.017 7.017 0 0 1 -1.138.093zm3.124 1.057c.444-.24.82-.534 1.127-.883a3.801 3.801 0 0 0 .953-2.514c0-.451-.069-.92-.205-1.406a3.288 3.288 0 0 0 -.728-1.313c-.348-.39-.823-.711-1.424-.965-.6-.252-1.366-.38-2.294-.38h-5.102v14.53h1.967v-6.403h2.192l3.688 6.403h2.459l-4.118-6.628a3.91 3.91 0 0 0 1.485-.441zm-23.142.564h6.885v-1.847h-6.885v-4.33h7.397v-1.847h-9.364v14.53h9.732v-1.847h-7.765v-4.66zm-20.282-6.177h4.671v12.682h1.967v-12.682h4.672v-1.847h-11.31zm-8.974 10.097h-.04l-7.992-11.944h-2.582v14.53h1.967v-11.945h.041l8.073 11.943h2.5v-14.528h-1.968v11.945zm-21.226 2.585h1.967v-14.529h-1.967v14.53zm-.164-51.853-12.466-32.766h-12.66v46.77h7.912l.005-36.032 14.31 36.032h5.803l14.313-36.032v36.032h7.909v-46.77h-12.528zm229.558-8.788c0-2.377 2.504-3.367 4.615-3.367 2.703 0 4.684 1.125 6.202 3.237l5.274-4.758c-2.574-3.5-7.06-4.823-11.278-4.823-6.4 0-12.728 3.174-12.728 10.237 0 12.089 17.08 6.939 17.08 13.478 0 2.513-2.969 3.632-5.271 3.632-3.366 0-5.481-1.649-7.521-3.896l-5.275 4.955c3.228 3.632 7.45 4.89 12.332 4.89 6.46 0 13.647-2.644 13.647-10.175 0-12.353-17.077-7.73-17.077-13.41zm-16.21-8.918-6.595 22.195h-.133l-6.858-22.195h-8.574l-6.396 22.195h-.131l-6.86-22.195h-8.576l11.019 31.71h8.176l6.658-21.67h.135l7.518 21.67h7.846l10.75-31.71h-7.98zm-67.944 12.684c.592-4.557 3.499-7.535 8.175-7.535 4.947 0 7.98 2.91 8.05 7.535zm9.298-13.477c-9.558 0-17.21 6.67-17.21 16.648 0 9.975 7.652 16.648 17.21 16.648 5.016 0 9.696-1.785 13.389-6.341l-5.672-4.296c-1.983 2.448-4.549 4.296-8.508 4.296-4.423 0-7.977-2.846-8.507-7.532h24.14v-2.181c0-11.03-6.004-17.242-14.842-17.242zm-32.264 0c-4.881 0-8.043 2.573-9.296 5.22h-.135v-19.487h-7.915v46.77h7.915v-17.311c0-4.226 2.046-8.057 7.257-8.057 5.539 0 5.802 5.815 5.802 9.315v16.053h7.919v-20.017c0-6.473-3.04-12.486-11.547-12.486zm-71.4 20.082c0 4.423-2.573 7.265-7.982 7.265-2.57 0-5.537-1.253-5.537-4.161 0-4.555 7.517-4.886 11.87-4.886h1.65v1.782zm-5.937-20.082c-5.016 0-9.956 1.52-13.453 5.087l4.155 4.164c2.108-1.98 5.141-3.309 8.443-3.309 4.219 0 7.252 2.052 7.252 5.95v.86h-1.98c-7.911 0-19.916.725-19.916 11.031 0 6.275 5.679 9.513 11.541 9.513 4.223 0 7.914-1.588 10.16-5.153h.195v4.36h7.124v-18.237c0-4.494 0-14.266-13.52-14.266zm34.879 5.333-.01-4.54h-8.705v-9.18h-7.914v30.447c0 7.467 1.98 11.235 10.357 11.235 1.845 0 4.617-.264 6.263-1.057v-6.674c-.99.726-2.9.99-4.284.99-3.495 0-4.422-1.981-4.422-5.151v-12.61zm20.352 0-.009-4.54h-8.707v-9.18h-7.914v30.447c0 7.467 1.98 11.235 10.355 11.235 1.85 0 4.621-.264 6.266-1.057v-6.674c-.99.726-2.9.99-4.283.99-3.497 0-4.424-1.981-4.424-5.151v-12.61z" fill="#c8102e" fill-rule="evenodd"/></svg>