<?xml version="1.0" encoding="utf-8"?>
<!-- Generator: Adobe Illustrator 26.0.2, SVG Export Plug-In . SVG Version: 6.00 Build 0)  -->
<svg version="1.1" id="Livello_1" xmlns="http://www.w3.org/2000/svg" xmlns:xlink="http://www.w3.org/1999/xlink" x="0px" y="0px"
	 viewBox="0 0 552.1 152.7" style="enable-background:new 0 0 552.1 152.7;" xml:space="preserve">
<style type="text/css">
	.st0{fill:#5AC7DA;}
	.st1{fill:#0091B4;}
	.st2{fill:#183B65;}
</style>
<rect x="167.7" y="40" class="st0" width="16.9" height="29.5"/>
<rect x="167.7" y="73.9" class="st1" width="16.9" height="29.5"/>
<g>
	<polygon class="st2" points="118.6,10.5 13.3,10.5 13.3,26.9 56.6,26.9 56.6,137.2 75.7,137.2 75.7,26.9 118.6,26.9 	"/>
	<path class="st2" d="M439,113.3V68.5c0-20-14.6-31.4-40-31.4c-26.4,0-42.6,13.2-43.2,35.3l-0.1,2.9H376l0.2-2.6
		c1-12.3,8.4-18.1,23.3-18.1c14.1,0,20.1,4.2,20.1,14c0,4.6-1.7,6.9-11.6,8.6L384.2,81c-20.7,3.5-30.8,13.5-30.8,30.8
		c0,18.5,12.9,29.9,33.7,29.9c17.7,0,27.5-8.3,32.7-15.8c0.2,3.6,0.6,7.3,0.9,10.7l0.2,1h19.4l-0.3-1.5
		C439.1,126.7,439,119.3,439,113.3z M419.6,92.2c0,16-9.1,32.1-29.5,32.1c-10.2,0-15.8-4.6-15.8-13c0-6.8,2.8-12,16.4-14.8l15.5-3.2
		c5.3-1.1,9.5-2.2,13.4-4.1V92.2z"/>
	<path class="st2" d="M118.7,62.1V41.3h-16.9v95.9h16.9v-35.9c0-31.3,9.2-44.7,30.9-44.7c0.6,0,1.2,0,1.8,0h4.9V40H152
		C136.8,40,125.4,47.6,118.7,62.1z"/>
	<polygon class="st2" points="268.6,113.7 231.1,10.4 199.2,10.4 199.2,137.2 220.4,137.2 220.4,40.7 255.9,137.2 280.8,137.2 
		316.2,40.7 316.2,137.2 337.4,137.2 337.4,10.4 305.8,10.4 	"/>
	<path class="st2" d="M507,80.6l-19.8-2.8c-11.2-1.6-12.7-6.7-12.7-11c0-8.4,6.6-12.6,19.6-12.6c13.4,0,21.4,5.7,22.4,15.9l0.3,2.6
		h20.4l-0.2-3C535.6,49.5,519.3,37,494.4,37c-25.2,0-40.2,11.5-40.2,30.9c0,15.6,9.9,25.6,27.9,28.1l21.7,3.2
		c10.2,1.5,14.5,5.2,14.5,12.7c0,6.2-2.3,13.4-20.1,13.4c-17.1,0-25.6-6.4-26.9-20.2l-0.2-2.6h-19.4l0.1,2.9c0.5,23.9,16.8,37,46,37
		c33.9,0,41-17,41-31.3C538.8,93.5,528.7,83.8,507,80.6z"/>
	<rect x="167.7" y="107.7" class="st2" width="16.9" height="29.5"/>
</g>
</svg>
